<?xml version="1.0" encoding="utf-8" standalone="no"?>
<!DOCTYPE svg PUBLIC "-//W3C//DTD SVG 1.1//EN"
  "http://www.w3.org/Graphics/SVG/1.1/DTD/svg11.dtd">
<svg xmlns:xlink="http://www.w3.org/1999/xlink" width="516.6pt" height="333.4pt" viewBox="0 0 516.6 333.4" xmlns="http://www.w3.org/2000/svg" version="1.1">
 <metadata>
  <rdf:RDF xmlns:dc="http://purl.org/dc/elements/1.1/" xmlns:cc="http://creativecommons.org/ns#" xmlns:rdf="http://www.w3.org/1999/02/22-rdf-syntax-ns#">
   <cc:Work>
    <dc:type rdf:resource="http://purl.org/dc/dcmitype/StillImage"/>
    <dc:date>2026-07-21T12:12:42.481399</dc:date>
    <dc:format>image/svg+xml</dc:format>
    <dc:creator>
     <cc:Agent>
      <dc:title>Matplotlib v3.10.8, https://matplotlib.org/</dc:title>
     </cc:Agent>
    </dc:creator>
   </cc:Work>
  </rdf:RDF>
 </metadata>
 <defs>
  <style type="text/css">*{stroke-linejoin: round; stroke-linecap: butt}</style>
 </defs>
 <g id="figure_1">
  <g id="patch_1">
   <path d="M 0 333.4 
L 516.6 333.4 
L 516.6 0 
L 0 0 
z
" style="fill: #ffffff"/>
  </g>
  <g id="axes_1">
   <g id="patch_2">
    <path d="M 12.288146 275.822918 
L 114.051064 275.822918 
L 114.051064 174.06 
L 12.288146 174.06 
z
" clip-path="url(#p1a5aee3324)" style="fill: #ff7f0e; opacity: 0.5; stroke: #ff7f0e; stroke-width: 0.7; stroke-linejoin: miter"/>
   </g>
   <g id="patch_3">
    <path d="M 114.051064 275.822918 
L 215.813982 275.822918 
L 215.813982 174.06 
L 114.051064 174.06 
z
" clip-path="url(#p1a5aee3324)" style="fill: #ff7f0e; opacity: 0.5; stroke: #ff7f0e; stroke-width: 0.7; stroke-linejoin: miter"/>
   </g>
   <g id="patch_4">
    <path d="M 12.288146 174.06 
L 114.051064 174.06 
L 114.051064 72.297082 
L 12.288146 72.297082 
z
" clip-path="url(#p1a5aee3324)" style="fill: #ff7f0e; opacity: 0.5; stroke: #ff7f0e; stroke-width: 0.7; stroke-linejoin: miter"/>
   </g>
   <g id="patch_5">
    <path d="M 114.051064 174.06 
L 139.491793 174.06 
L 139.491793 148.619271 
L 114.051064 148.619271 
z
" clip-path="url(#p1a5aee3324)" style="fill: #d62728; opacity: 0.5; stroke: #d62728; stroke-width: 0.7; stroke-linejoin: miter"/>
   </g>
   <g id="patch_6">
    <path d="M 139.491793 174.06 
L 164.932523 174.06 
L 164.932523 148.619271 
L 139.491793 148.619271 
z
" clip-path="url(#p1a5aee3324)" style="fill: #d62728; opacity: 0.5; stroke: #d62728; stroke-width: 0.7; stroke-linejoin: miter"/>
   </g>
   <g id="patch_7">
    <path d="M 164.932523 174.06 
L 190.373252 174.06 
L 190.373252 148.619271 
L 164.932523 148.619271 
z
" clip-path="url(#p1a5aee3324)" style="fill: #d62728; opacity: 0.5; stroke: #d62728; stroke-width: 0.7; stroke-linejoin: miter"/>
   </g>
   <g id="patch_8">
    <path d="M 190.373252 174.06 
L 215.813982 174.06 
L 215.813982 148.619271 
L 190.373252 148.619271 
z
" clip-path="url(#p1a5aee3324)" style="fill: #d62728; opacity: 0.5; stroke: #d62728; stroke-width: 0.7; stroke-linejoin: miter"/>
   </g>
   <g id="patch_9">
    <path d="M 114.051064 148.619271 
L 139.491793 148.619271 
L 139.491793 123.178541 
L 114.051064 123.178541 
z
" clip-path="url(#p1a5aee3324)" style="fill: #d62728; opacity: 0.5; stroke: #d62728; stroke-width: 0.7; stroke-linejoin: miter"/>
   </g>
   <g id="patch_10">
    <path d="M 139.491793 148.619271 
L 164.932523 148.619271 
L 164.932523 123.178541 
L 139.491793 123.178541 
z
" clip-path="url(#p1a5aee3324)" style="fill: #d62728; opacity: 0.5; stroke: #d62728; stroke-width: 0.7; stroke-linejoin: miter"/>
   </g>
   <g id="patch_11">
    <path d="M 164.932523 148.619271 
L 190.373252 148.619271 
L 190.373252 123.178541 
L 164.932523 123.178541 
z
" clip-path="url(#p1a5aee3324)" style="fill: #d62728; opacity: 0.5; stroke: #d62728; stroke-width: 0.7; stroke-linejoin: miter"/>
   </g>
   <g id="patch_12">
    <path d="M 190.373252 148.619271 
L 215.813982 148.619271 
L 215.813982 123.178541 
L 190.373252 123.178541 
z
" clip-path="url(#p1a5aee3324)" style="fill: #d62728; opacity: 0.5; stroke: #d62728; stroke-width: 0.7; stroke-linejoin: miter"/>
   </g>
   <g id="patch_13">
    <path d="M 114.051064 123.178541 
L 139.491793 123.178541 
L 139.491793 97.737812 
L 114.051064 97.737812 
z
" clip-path="url(#p1a5aee3324)" style="fill: #d62728; opacity: 0.5; stroke: #d62728; stroke-width: 0.7; stroke-linejoin: miter"/>
   </g>
   <g id="patch_14">
    <path d="M 139.491793 123.178541 
L 164.932523 123.178541 
L 164.932523 97.737812 
L 139.491793 97.737812 
z
" clip-path="url(#p1a5aee3324)" style="fill: #d62728; opacity: 0.5; stroke: #d62728; stroke-width: 0.7; stroke-linejoin: miter"/>
   </g>
   <g id="patch_15">
    <path d="M 164.932523 123.178541 
L 190.373252 123.178541 
L 190.373252 97.737812 
L 164.932523 97.737812 
z
" clip-path="url(#p1a5aee3324)" style="fill: #d62728; opacity: 0.5; stroke: #d62728; stroke-width: 0.7; stroke-linejoin: miter"/>
   </g>
   <g id="patch_16">
    <path d="M 190.373252 123.178541 
L 215.813982 123.178541 
L 215.813982 97.737812 
L 190.373252 97.737812 
z
" clip-path="url(#p1a5aee3324)" style="fill: #d62728; opacity: 0.5; stroke: #d62728; stroke-width: 0.7; stroke-linejoin: miter"/>
   </g>
   <g id="patch_17">
    <path d="M 114.051064 97.737812 
L 139.491793 97.737812 
L 139.491793 72.297082 
L 114.051064 72.297082 
z
" clip-path="url(#p1a5aee3324)" style="fill: #d62728; opacity: 0.5; stroke: #d62728; stroke-width: 0.7; stroke-linejoin: miter"/>
   </g>
   <g id="patch_18">
    <path d="M 139.491793 97.737812 
L 164.932523 97.737812 
L 164.932523 72.297082 
L 139.491793 72.297082 
z
" clip-path="url(#p1a5aee3324)" style="fill: #d62728; opacity: 0.5; stroke: #d62728; stroke-width: 0.7; stroke-linejoin: miter"/>
   </g>
   <g id="patch_19">
    <path d="M 164.932523 97.737812 
L 190.373252 97.737812 
L 190.373252 72.297082 
L 164.932523 72.297082 
z
" clip-path="url(#p1a5aee3324)" style="fill: #d62728; opacity: 0.5; stroke: #d62728; stroke-width: 0.7; stroke-linejoin: miter"/>
   </g>
   <g id="patch_20">
    <path d="M 190.373252 97.737812 
L 215.813982 97.737812 
L 215.813982 72.297082 
L 190.373252 72.297082 
z
" clip-path="url(#p1a5aee3324)" style="fill: #d62728; opacity: 0.5; stroke: #d62728; stroke-width: 0.7; stroke-linejoin: miter"/>
   </g>
   <g id="text_1">
    <!-- $L_n$ -->
    <g style="fill: #ff7f0e" transform="translate(56.731863 227.681185) scale(0.11 -0.11)">
     <defs>
      <path id="CMMI12-4c" d="M 2349 3861 
C 2406 4103 2426 4167 2989 4167 
C 3162 4167 3206 4167 3206 4288 
C 3206 4352 3136 4352 3110 4352 
C 2982 4352 2835 4352 2707 4352 
L 1850 4352 
C 1728 4352 1587 4352 1466 4352 
C 1414 4352 1344 4352 1344 4231 
C 1344 4167 1402 4167 1498 4167 
C 1888 4167 1888 4116 1888 4046 
C 1888 4034 1888 3995 1862 3899 
L 998 472 
C 941 249 928 185 480 185 
C 358 185 294 185 294 70 
C 294 0 333 0 461 0 
L 3328 0 
C 3469 0 3475 6 3520 121 
L 4013 1478 
C 4026 1510 4038 1548 4038 1567 
C 4038 1605 4006 1631 3974 1631 
C 3968 1631 3936 1631 3923 1605 
C 3910 1599 3910 1586 3859 1465 
C 3654 905 3366 185 2285 185 
L 1670 185 
C 1581 185 1568 185 1530 192 
C 1459 198 1453 211 1453 262 
C 1453 307 1466 345 1478 401 
L 2349 3861 
z
" transform="scale(0.015625)"/>
      <path id="CMMI12-6e" d="M 1318 1871 
C 1331 1910 1491 2229 1728 2433 
C 1894 2586 2112 2689 2362 2689 
C 2618 2689 2707 2497 2707 2242 
C 2707 1878 2445 1150 2317 805 
C 2259 651 2227 568 2227 453 
C 2227 166 2426 -64 2733 -64 
C 3328 -64 3552 875 3552 913 
C 3552 945 3526 971 3488 971 
C 3430 971 3424 952 3392 843 
C 3245 319 3002 64 2752 64 
C 2688 64 2586 64 2586 269 
C 2586 429 2656 621 2694 710 
C 2822 1063 3091 1780 3091 2145 
C 3091 2528 2867 2816 2381 2816 
C 1811 2816 1510 2415 1395 2255 
C 1376 2618 1114 2816 832 2816 
C 627 2816 486 2695 378 2478 
C 262 2248 173 1865 173 1839 
C 173 1814 198 1782 243 1782 
C 294 1782 301 1788 339 1935 
C 442 2325 557 2689 813 2689 
C 960 2689 1011 2586 1011 2395 
C 1011 2254 947 2005 902 1807 
L 723 1118 
C 698 996 627 709 595 594 
C 550 428 480 128 480 96 
C 480 6 550 -64 646 -64 
C 723 -64 813 -26 864 70 
C 877 102 934 326 966 453 
L 1107 1028 
L 1318 1871 
z
" transform="scale(0.015625)"/>
     </defs>
     <use xlink:href="#CMMI12-4c" transform="scale(0.996264)"/>
     <use xlink:href="#CMMI12-6e" transform="translate(66.370875 -14.943915) scale(0.697382)"/>
    </g>
   </g>
   <g id="text_2">
    <!-- $L_{n+2}$ -->
    <g style="fill: #d62728" transform="translate(116.970019 163.094179) scale(0.08 -0.08)">
     <defs>
      <path id="CMR17-2b" d="M 2413 1472 
L 4109 1472 
C 4198 1472 4307 1472 4307 1580 
C 4307 1695 4205 1695 4109 1695 
L 2413 1695 
L 2413 3386 
C 2413 3475 2413 3584 2304 3584 
C 2189 3584 2189 3482 2189 3386 
L 2189 1695 
L 493 1695 
C 403 1695 294 1695 294 1587 
C 294 1472 397 1472 493 1472 
L 2189 1472 
L 2189 -218 
C 2189 -307 2189 -416 2298 -416 
C 2413 -416 2413 -314 2413 -218 
L 2413 1472 
z
" transform="scale(0.015625)"/>
      <path id="CMR17-32" d="M 2669 989 
L 2554 989 
C 2490 536 2438 459 2413 420 
C 2381 369 1920 369 1830 369 
L 602 369 
C 832 619 1280 1072 1824 1597 
C 2214 1967 2669 2402 2669 3035 
C 2669 3790 2067 4224 1395 4224 
C 691 4224 262 3604 262 3030 
C 262 2780 448 2748 525 2748 
C 589 2748 781 2787 781 3010 
C 781 3207 614 3264 525 3264 
C 486 3264 448 3258 422 3245 
C 544 3790 915 4058 1306 4058 
C 1862 4058 2227 3617 2227 3035 
C 2227 2479 1901 2000 1536 1584 
L 262 146 
L 262 0 
L 2515 0 
L 2669 989 
z
" transform="scale(0.015625)"/>
     </defs>
     <use xlink:href="#CMMI12-4c" transform="scale(0.996264)"/>
     <use xlink:href="#CMMI12-6e" transform="translate(66.370875 -14.943915) scale(0.697382)"/>
     <use xlink:href="#CMR17-2b" transform="translate(107.131719 -14.943915) scale(0.697382)"/>
     <use xlink:href="#CMR17-32" transform="translate(157.33185 -14.943915) scale(0.697382)"/>
    </g>
   </g>
   <g id="patch_21">
    <path d="M 164.932523 213.303588 
Q 164.932523 194.680609 164.932523 177.39927 
" style="fill: none; stroke: #ff0000; stroke-width: 1.2; stroke-linecap: round"/>
    <path d="M 163.332523 180.59927 
L 164.932523 177.39927 
L 166.532523 180.59927 
" style="fill: none; stroke: #ff0000; stroke-width: 1.2; stroke-linecap: round"/>
   </g>
   <g id="text_3">
    <!-- 2-level -->
    <g style="fill: #ff0000" transform="translate(153.170904 222.838233) scale(0.08 -0.08)">
     <defs>
      <path id="CMR17-2d" d="M 1632 1216 
L 1632 1496 
L 26 1496 
L 26 1216 
L 1632 1216 
z
" transform="scale(0.015625)"/>
      <path id="CMR17-6c" d="M 979 4396 
L 218 4326 
L 218 4160 
C 595 4160 653 4122 653 3817 
L 653 426 
C 653 184 627 153 218 153 
L 218 -13 
C 371 0 653 0 813 0 
C 979 0 1261 0 1414 -13 
L 1414 153 
C 1005 153 979 178 979 426 
L 979 4396 
z
" transform="scale(0.015625)"/>
      <path id="CMR17-65" d="M 2438 1472 
C 2464 1498 2464 1511 2464 1576 
C 2464 2238 2118 2816 1389 2816 
C 710 2816 173 2169 173 1383 
C 173 551 781 -64 1459 -64 
C 2176 -64 2458 607 2458 740 
C 2458 784 2419 784 2406 784 
C 2362 784 2355 771 2330 696 
C 2189 265 1837 51 1504 51 
C 1229 51 954 203 781 480 
C 582 803 582 1176 582 1472 
L 2438 1472 
z
M 589 1568 
C 634 2505 1126 2714 1382 2714 
C 1818 2714 2112 2297 2118 1568 
L 589 1568 
z
" transform="scale(0.015625)"/>
      <path id="CMR17-76" d="M 2502 2163 
C 2560 2304 2662 2560 3034 2560 
L 3034 2726 
C 2912 2726 2752 2726 2630 2726 
C 2496 2726 2285 2726 2157 2732 
L 2157 2566 
C 2317 2553 2406 2477 2406 2311 
C 2406 2253 2406 2240 2368 2151 
L 1664 377 
L 902 2286 
C 864 2369 864 2381 864 2407 
C 864 2560 1075 2560 1171 2560 
L 1171 2732 
C 1018 2726 736 2726 576 2726 
C 403 2726 205 2726 64 2732 
L 64 2560 
C 307 2560 442 2560 518 2362 
L 1446 44 
C 1485 -51 1491 -64 1549 -64 
C 1606 -64 1613 -51 1651 44 
L 2502 2163 
z
" transform="scale(0.015625)"/>
     </defs>
     <use xlink:href="#CMR17-32" transform="scale(0.996264)"/>
     <use xlink:href="#CMR17-2d" transform="translate(45.690477 0) scale(0.996264)"/>
     <use xlink:href="#CMR17-6c" transform="translate(75.766443 0) scale(0.996264)"/>
     <use xlink:href="#CMR17-65" transform="translate(100.637502 0) scale(0.996264)"/>
     <use xlink:href="#CMR17-76" transform="translate(141.123162 0) scale(0.996264)"/>
     <use xlink:href="#CMR17-65" transform="translate(186.813624 0) scale(0.996264)"/>
     <use xlink:href="#CMR17-6c" transform="translate(227.299285 0) scale(0.996264)"/>
    </g>
    <!-- disparity -->
    <g style="fill: #ff0000" transform="translate(148.674505 231.029741) scale(0.08 -0.08)">
     <defs>
      <path id="CMR17-64" d="M 1869 4326 
L 1869 4160 
C 2246 4160 2304 4122 2304 3820 
L 2304 2345 
C 2278 2377 2016 2790 1498 2790 
C 845 2790 211 2208 211 1364 
C 211 525 806 -64 1434 -64 
C 1978 -64 2259 337 2291 380 
L 2291 -63 
L 3066 -63 
L 3066 128 
C 2688 128 2630 166 2630 473 
L 2630 4396 
L 1869 4326 
z
M 2291 755 
C 2291 563 2176 390 2029 262 
C 1811 70 1594 38 1472 38 
C 1286 38 621 134 621 1356 
C 621 2612 1363 2688 1530 2688 
C 1824 2688 2061 2522 2208 2291 
C 2291 2157 2291 2138 2291 2023 
L 2291 755 
z
" transform="scale(0.015625)"/>
      <path id="CMR17-69" d="M 992 3909 
C 992 4049 877 4170 730 4170 
C 589 4170 467 4056 467 3909 
C 467 3769 582 3648 730 3648 
C 870 3648 992 3763 992 3909 
z
M 243 2706 
L 243 2541 
C 602 2541 653 2502 653 2197 
L 653 427 
C 653 184 627 153 218 153 
L 218 -13 
C 371 0 646 0 806 0 
C 960 0 1222 0 1370 -13 
L 1370 153 
C 992 153 979 191 979 420 
L 979 2776 
L 243 2706 
z
" transform="scale(0.015625)"/>
      <path id="CMR17-73" d="M 1978 2697 
C 1978 2813 1971 2819 1933 2819 
C 1907 2819 1901 2813 1824 2717 
C 1805 2691 1747 2626 1728 2601 
C 1523 2819 1235 2819 1126 2819 
C 416 2819 160 2447 160 2076 
C 160 1498 813 1365 998 1325 
C 1402 1243 1542 1217 1677 1101 
C 1760 1025 1901 884 1901 654 
C 1901 384 1747 38 1158 38 
C 602 38 403 460 288 1021 
C 269 1110 269 1117 218 1117 
C 166 1117 160 1110 160 983 
L 160 63 
C 160 -51 166 -58 205 -58 
C 237 -58 243 -51 275 0 
C 314 57 410 211 448 276 
C 576 103 800 -64 1158 -64 
C 1792 -64 2131 283 2131 784 
C 2131 1112 1958 1285 1875 1362 
C 1683 1561 1459 1606 1190 1657 
C 838 1735 390 1825 390 2217 
C 390 2383 480 2737 1126 2737 
C 1811 2737 1850 2094 1862 1888 
C 1869 1856 1901 1849 1920 1849 
C 1978 1849 1978 1869 1978 1978 
L 1978 2697 
z
" transform="scale(0.015625)"/>
      <path id="CMR17-70" d="M 1408 -1063 
C 998 -1063 973 -1037 973 -789 
L 973 402 
C 1158 134 1427 -38 1766 -38 
C 2406 -38 3053 523 3053 1388 
C 3053 2191 2496 2802 1837 2802 
C 1453 2802 1139 2592 960 2338 
L 960 2802 
L 198 2732 
L 198 2567 
C 576 2567 634 2528 634 2223 
L 634 -789 
C 634 -1031 608 -1063 198 -1063 
L 198 -1228 
C 352 -1216 634 -1216 800 -1216 
C 966 -1216 1254 -1216 1408 -1228 
L 1408 -1063 
z
M 973 2012 
C 973 2102 973 2235 1222 2471 
C 1254 2497 1472 2688 1792 2688 
C 2259 2688 2643 2108 2643 1382 
C 2643 656 2234 64 1728 64 
C 1498 64 1248 172 1056 472 
C 973 612 973 650 973 752 
L 973 2012 
z
" transform="scale(0.015625)"/>
      <path id="CMR17-61" d="M 2304 1653 
C 2304 2072 2304 2294 2035 2543 
C 1798 2752 1523 2816 1306 2816 
C 800 2816 435 2407 435 1971 
C 435 1728 627 1728 666 1728 
C 749 1728 896 1778 896 1954 
C 896 2112 774 2181 666 2181 
C 640 2181 608 2174 589 2168 
C 723 2592 1069 2714 1293 2714 
C 1613 2714 1965 2429 1965 1885 
L 1965 1600 
C 1587 1600 1133 1549 774 1357 
C 371 1133 256 813 256 570 
C 256 77 832 -64 1171 -64 
C 1523 -64 1850 139 1990 511 
C 2003 233 2182 -18 2464 -18 
C 2598 -18 2938 70 2938 567 
L 2938 920 
L 2822 920 
L 2822 562 
C 2822 178 2650 128 2566 128 
C 2304 128 2304 458 2304 738 
L 2304 1653 
z
M 1965 870 
C 1965 317 1568 38 1216 38 
C 896 38 646 275 646 570 
C 646 761 730 1100 1101 1305 
C 1408 1478 1760 1504 1965 1504 
L 1965 870 
z
" transform="scale(0.015625)"/>
      <path id="CMR17-72" d="M 960 1497 
C 960 2112 1222 2688 1702 2688 
C 1747 2688 1792 2682 1837 2662 
C 1837 2662 1696 2617 1696 2452 
C 1696 2298 1818 2234 1914 2234 
C 1990 2234 2131 2279 2131 2458 
C 2131 2663 1926 2790 1709 2790 
C 1222 2790 1011 2317 947 2093 
L 941 2093 
L 941 2790 
L 198 2720 
L 198 2554 
C 576 2554 634 2515 634 2208 
L 634 428 
C 634 184 608 153 198 153 
L 198 -13 
C 352 0 646 0 813 0 
C 998 0 1325 0 1498 -13 
L 1498 153 
C 1037 153 960 153 960 440 
L 960 1497 
z
" transform="scale(0.015625)"/>
      <path id="CMR17-74" d="M 966 2560 
L 1862 2560 
L 1862 2725 
L 966 2725 
L 966 3904 
L 851 3904 
C 838 3245 614 2668 70 2668 
L 70 2560 
L 627 2560 
L 627 771 
C 627 650 627 -64 1370 -64 
C 1747 -64 1965 306 1965 777 
L 1965 1140 
L 1850 1140 
L 1850 783 
C 1850 344 1677 51 1408 51 
C 1222 51 966 178 966 758 
L 966 2560 
z
" transform="scale(0.015625)"/>
      <path id="CMR17-79" d="M 2496 2197 
C 2656 2586 2944 2586 3034 2586 
L 3034 2752 
C 2912 2752 2752 2752 2630 2752 
C 2496 2752 2285 2752 2157 2758 
L 2157 2592 
C 2400 2573 2406 2394 2406 2343 
C 2406 2280 2394 2248 2362 2171 
L 1664 449 
L 902 2306 
C 870 2382 870 2426 870 2433 
C 870 2573 1018 2586 1171 2586 
L 1171 2758 
C 1018 2752 742 2752 582 2752 
C 410 2752 205 2752 64 2758 
L 64 2586 
C 410 2586 448 2554 531 2350 
L 1485 15 
C 1197 -738 1030 -1178 627 -1178 
C 557 -1178 397 -1159 282 -1044 
C 429 -1031 493 -942 493 -833 
C 493 -725 416 -629 288 -629 
C 147 -629 77 -725 77 -840 
C 77 -1095 339 -1280 627 -1280 
C 998 -1280 1229 -922 1357 -604 
L 2496 2197 
z
" transform="scale(0.015625)"/>
     </defs>
     <use xlink:href="#CMR17-64" transform="scale(0.996264)"/>
     <use xlink:href="#CMR17-69" transform="translate(50.89537 0) scale(0.996264)"/>
     <use xlink:href="#CMR17-73" transform="translate(75.766428 0) scale(0.996264)"/>
     <use xlink:href="#CMR17-70" transform="translate(111.567766 0) scale(0.996264)"/>
     <use xlink:href="#CMR17-61" transform="translate(162.463136 0) scale(0.996264)"/>
     <use xlink:href="#CMR17-72" transform="translate(208.153613 0) scale(0.996264)"/>
     <use xlink:href="#CMR17-69" transform="translate(243.434381 0) scale(0.996264)"/>
     <use xlink:href="#CMR17-74" transform="translate(268.305439 0) scale(0.996264)"/>
     <use xlink:href="#CMR17-79" transform="translate(300.983753 0) scale(0.996264)"/>
    </g>
   </g>
   <g id="text_4">
    <!-- Unbalanced -->
    <g transform="translate(86.044911 63.208936) scale(0.11 -0.11)">
     <defs>
      <path id="CMR17-55" d="M 3456 1433 
C 3456 579 2899 38 2291 38 
C 1965 38 1670 210 1491 477 
C 1286 783 1261 1178 1261 1401 
L 1261 3874 
C 1261 4160 1331 4160 1773 4160 
L 1773 4320 
C 1587 4320 1248 4320 1050 4320 
C 851 4320 512 4320 326 4320 
L 326 4160 
C 768 4160 838 4160 838 3874 
L 838 1433 
C 838 516 1536 -128 2278 -128 
C 3110 -128 3590 719 3590 1344 
L 3590 3766 
C 3590 4122 3917 4160 4102 4160 
L 4102 4326 
C 3955 4320 3686 4320 3526 4320 
C 3366 4320 3091 4320 2944 4326 
L 2944 4160 
C 3456 4160 3456 3861 3456 3702 
L 3456 1433 
z
" transform="scale(0.015625)"/>
      <path id="CMR17-6e" d="M 2656 1933 
C 2656 2259 2592 2790 1837 2790 
C 1331 2790 1069 2400 973 2144 
L 966 2144 
L 966 2790 
L 211 2720 
L 211 2554 
C 589 2554 646 2515 646 2208 
L 646 428 
C 646 184 621 153 211 153 
L 211 -13 
C 365 0 646 0 813 0 
C 979 0 1267 0 1421 -13 
L 1421 153 
C 1011 153 986 178 986 428 
L 986 1658 
C 986 2247 1344 2688 1792 2688 
C 2266 2688 2317 2266 2317 1958 
L 2317 428 
C 2317 184 2291 153 1882 153 
L 1882 -13 
C 2035 0 2317 0 2483 0 
C 2650 0 2938 0 3091 -13 
L 3091 153 
C 2682 153 2656 178 2656 428 
L 2656 1933 
z
" transform="scale(0.015625)"/>
      <path id="CMR17-62" d="M 960 4396 
L 198 4326 
L 198 4160 
C 576 4160 634 4122 634 3817 
L 634 -13 
L 749 -13 
L 934 441 
C 1120 141 1395 -64 1766 -64 
C 2406 -64 3053 500 3053 1370 
C 3053 2188 2477 2790 1830 2790 
C 1434 2790 1152 2579 960 2330 
L 960 4396 
z
M 973 2004 
C 973 2118 973 2138 1062 2272 
C 1312 2657 1670 2688 1792 2688 
C 1984 2688 2643 2585 2643 1376 
C 2643 108 1888 38 1734 38 
C 1536 38 1248 114 1043 486 
C 973 608 973 621 973 735 
L 973 2004 
z
" transform="scale(0.015625)"/>
      <path id="CMR17-63" d="M 2234 2240 
C 2112 2240 1933 2240 1933 2017 
C 1933 1838 2080 1787 2163 1787 
C 2208 1787 2394 1807 2394 2024 
C 2394 2467 1958 2803 1466 2803 
C 787 2803 211 2178 211 1363 
C 211 516 813 -64 1466 -64 
C 2259 -64 2458 677 2458 748 
C 2458 774 2451 793 2406 793 
C 2362 793 2355 787 2330 703 
C 2163 180 1798 51 1523 51 
C 1114 51 621 427 621 1369 
C 621 2338 1094 2688 1472 2688 
C 1722 2688 2093 2573 2234 2240 
z
" transform="scale(0.015625)"/>
     </defs>
     <use xlink:href="#CMR17-55" transform="scale(0.996264)"/>
     <use xlink:href="#CMR17-6e" transform="translate(69.07243 0) scale(0.996264)"/>
     <use xlink:href="#CMR17-62" transform="translate(117.365346 0) scale(0.996264)"/>
     <use xlink:href="#CMR17-61" transform="translate(168.260715 0) scale(0.996264)"/>
     <use xlink:href="#CMR17-6c" transform="translate(213.951193 0) scale(0.996264)"/>
     <use xlink:href="#CMR17-61" transform="translate(238.822251 0) scale(0.996264)"/>
     <use xlink:href="#CMR17-6e" transform="translate(284.512728 0) scale(0.996264)"/>
     <use xlink:href="#CMR17-63" transform="translate(335.408098 0) scale(0.996264)"/>
     <use xlink:href="#CMR17-65" transform="translate(375.893758 0) scale(0.996264)"/>
     <use xlink:href="#CMR17-64" transform="translate(416.379419 0) scale(0.996264)"/>
    </g>
   </g>
  </g>
  <g id="axes_2">
   <g id="patch_22">
    <path d="M 300.786018 275.822918 
L 402.548936 275.822918 
L 402.548936 174.06 
L 300.786018 174.06 
z
" clip-path="url(#pa39f56f821)" style="fill: #ff7f0e; opacity: 0.5; stroke: #ff7f0e; stroke-width: 0.7; stroke-linejoin: miter"/>
   </g>
   <g id="patch_23">
    <path d="M 402.548936 275.822918 
L 453.430395 275.822918 
L 453.430395 224.941459 
L 402.548936 224.941459 
z
" clip-path="url(#pa39f56f821)" style="fill: #2ca02c; opacity: 0.5; stroke: #2ca02c; stroke-width: 0.7; stroke-linejoin: miter"/>
   </g>
   <g id="patch_24">
    <path d="M 453.430395 275.822918 
L 504.311854 275.822918 
L 504.311854 224.941459 
L 453.430395 224.941459 
z
" clip-path="url(#pa39f56f821)" style="fill: #2ca02c; opacity: 0.5; stroke: #2ca02c; stroke-width: 0.7; stroke-linejoin: miter"/>
   </g>
   <g id="patch_25">
    <path d="M 402.548936 224.941459 
L 453.430395 224.941459 
L 453.430395 174.06 
L 402.548936 174.06 
z
" clip-path="url(#pa39f56f821)" style="fill: #2ca02c; opacity: 0.5; stroke: #2ca02c; stroke-width: 0.7; stroke-linejoin: miter"/>
   </g>
   <g id="patch_26">
    <path d="M 453.430395 224.941459 
L 504.311854 224.941459 
L 504.311854 174.06 
L 453.430395 174.06 
z
" clip-path="url(#pa39f56f821)" style="fill: #2ca02c; opacity: 0.5; stroke: #2ca02c; stroke-width: 0.7; stroke-linejoin: miter"/>
   </g>
   <g id="patch_27">
    <path d="M 300.786018 174.06 
L 351.667477 174.06 
L 351.667477 123.178541 
L 300.786018 123.178541 
z
" clip-path="url(#pa39f56f821)" style="fill: #2ca02c; opacity: 0.5; stroke: #2ca02c; stroke-width: 0.7; stroke-linejoin: miter"/>
   </g>
   <g id="patch_28">
    <path d="M 351.667477 174.06 
L 402.548936 174.06 
L 402.548936 123.178541 
L 351.667477 123.178541 
z
" clip-path="url(#pa39f56f821)" style="fill: #2ca02c; opacity: 0.5; stroke: #2ca02c; stroke-width: 0.7; stroke-linejoin: miter"/>
   </g>
   <g id="patch_29">
    <path d="M 300.786018 123.178541 
L 351.667477 123.178541 
L 351.667477 72.297082 
L 300.786018 72.297082 
z
" clip-path="url(#pa39f56f821)" style="fill: #2ca02c; opacity: 0.5; stroke: #2ca02c; stroke-width: 0.7; stroke-linejoin: miter"/>
   </g>
   <g id="patch_30">
    <path d="M 351.667477 123.178541 
L 402.548936 123.178541 
L 402.548936 72.297082 
L 351.667477 72.297082 
z
" clip-path="url(#pa39f56f821)" style="fill: #2ca02c; opacity: 0.5; stroke: #2ca02c; stroke-width: 0.7; stroke-linejoin: miter"/>
   </g>
   <g id="patch_31">
    <path d="M 402.548936 174.06 
L 427.989666 174.06 
L 427.989666 148.619271 
L 402.548936 148.619271 
z
" clip-path="url(#pa39f56f821)" style="fill: #d62728; opacity: 0.5; stroke: #d62728; stroke-width: 0.7; stroke-linejoin: miter"/>
   </g>
   <g id="patch_32">
    <path d="M 427.989666 174.06 
L 453.430395 174.06 
L 453.430395 148.619271 
L 427.989666 148.619271 
z
" clip-path="url(#pa39f56f821)" style="fill: #d62728; opacity: 0.5; stroke: #d62728; stroke-width: 0.7; stroke-linejoin: miter"/>
   </g>
   <g id="patch_33">
    <path d="M 453.430395 174.06 
L 478.871125 174.06 
L 478.871125 148.619271 
L 453.430395 148.619271 
z
" clip-path="url(#pa39f56f821)" style="fill: #d62728; opacity: 0.5; stroke: #d62728; stroke-width: 0.7; stroke-linejoin: miter"/>
   </g>
   <g id="patch_34">
    <path d="M 478.871125 174.06 
L 504.311854 174.06 
L 504.311854 148.619271 
L 478.871125 148.619271 
z
" clip-path="url(#pa39f56f821)" style="fill: #d62728; opacity: 0.5; stroke: #d62728; stroke-width: 0.7; stroke-linejoin: miter"/>
   </g>
   <g id="patch_35">
    <path d="M 402.548936 148.619271 
L 427.989666 148.619271 
L 427.989666 123.178541 
L 402.548936 123.178541 
z
" clip-path="url(#pa39f56f821)" style="fill: #d62728; opacity: 0.5; stroke: #d62728; stroke-width: 0.7; stroke-linejoin: miter"/>
   </g>
   <g id="patch_36">
    <path d="M 427.989666 148.619271 
L 453.430395 148.619271 
L 453.430395 123.178541 
L 427.989666 123.178541 
z
" clip-path="url(#pa39f56f821)" style="fill: #d62728; opacity: 0.5; stroke: #d62728; stroke-width: 0.7; stroke-linejoin: miter"/>
   </g>
   <g id="patch_37">
    <path d="M 453.430395 148.619271 
L 478.871125 148.619271 
L 478.871125 123.178541 
L 453.430395 123.178541 
z
" clip-path="url(#pa39f56f821)" style="fill: #d62728; opacity: 0.5; stroke: #d62728; stroke-width: 0.7; stroke-linejoin: miter"/>
   </g>
   <g id="patch_38">
    <path d="M 478.871125 148.619271 
L 504.311854 148.619271 
L 504.311854 123.178541 
L 478.871125 123.178541 
z
" clip-path="url(#pa39f56f821)" style="fill: #d62728; opacity: 0.5; stroke: #d62728; stroke-width: 0.7; stroke-linejoin: miter"/>
   </g>
   <g id="patch_39">
    <path d="M 402.548936 123.178541 
L 427.989666 123.178541 
L 427.989666 97.737812 
L 402.548936 97.737812 
z
" clip-path="url(#pa39f56f821)" style="fill: #d62728; opacity: 0.5; stroke: #d62728; stroke-width: 0.7; stroke-linejoin: miter"/>
   </g>
   <g id="patch_40">
    <path d="M 427.989666 123.178541 
L 453.430395 123.178541 
L 453.430395 97.737812 
L 427.989666 97.737812 
z
" clip-path="url(#pa39f56f821)" style="fill: #d62728; opacity: 0.5; stroke: #d62728; stroke-width: 0.7; stroke-linejoin: miter"/>
   </g>
   <g id="patch_41">
    <path d="M 453.430395 123.178541 
L 478.871125 123.178541 
L 478.871125 97.737812 
L 453.430395 97.737812 
z
" clip-path="url(#pa39f56f821)" style="fill: #d62728; opacity: 0.5; stroke: #d62728; stroke-width: 0.7; stroke-linejoin: miter"/>
   </g>
   <g id="patch_42">
    <path d="M 478.871125 123.178541 
L 504.311854 123.178541 
L 504.311854 97.737812 
L 478.871125 97.737812 
z
" clip-path="url(#pa39f56f821)" style="fill: #d62728; opacity: 0.5; stroke: #d62728; stroke-width: 0.7; stroke-linejoin: miter"/>
   </g>
   <g id="patch_43">
    <path d="M 402.548936 97.737812 
L 427.989666 97.737812 
L 427.989666 72.297082 
L 402.548936 72.297082 
z
" clip-path="url(#pa39f56f821)" style="fill: #d62728; opacity: 0.5; stroke: #d62728; stroke-width: 0.7; stroke-linejoin: miter"/>
   </g>
   <g id="patch_44">
    <path d="M 427.989666 97.737812 
L 453.430395 97.737812 
L 453.430395 72.297082 
L 427.989666 72.297082 
z
" clip-path="url(#pa39f56f821)" style="fill: #d62728; opacity: 0.5; stroke: #d62728; stroke-width: 0.7; stroke-linejoin: miter"/>
   </g>
   <g id="patch_45">
    <path d="M 453.430395 97.737812 
L 478.871125 97.737812 
L 478.871125 72.297082 
L 453.430395 72.297082 
z
" clip-path="url(#pa39f56f821)" style="fill: #d62728; opacity: 0.5; stroke: #d62728; stroke-width: 0.7; stroke-linejoin: miter"/>
   </g>
   <g id="patch_46">
    <path d="M 478.871125 97.737812 
L 504.311854 97.737812 
L 504.311854 72.297082 
L 478.871125 72.297082 
z
" clip-path="url(#pa39f56f821)" style="fill: #d62728; opacity: 0.5; stroke: #d62728; stroke-width: 0.7; stroke-linejoin: miter"/>
   </g>
   <g id="text_5">
    <!-- $L_n$ -->
    <g style="fill: #ff7f0e" transform="translate(345.229735 227.681185) scale(0.11 -0.11)">
     <use xlink:href="#CMMI12-4c" transform="scale(0.996264)"/>
     <use xlink:href="#CMMI12-6e" transform="translate(66.370875 -14.943915) scale(0.697382)"/>
    </g>
   </g>
   <g id="text_6">
    <!-- $L_{n+1}$ -->
    <g style="fill: #2ca02c" transform="translate(417.932341 252.540796) scale(0.09 -0.09)">
     <defs>
      <path id="CMR17-31" d="M 1702 4058 
C 1702 4192 1696 4192 1606 4192 
C 1357 3916 979 3827 621 3827 
C 602 3827 570 3827 563 3808 
C 557 3795 557 3782 557 3648 
C 755 3648 1088 3686 1344 3839 
L 1344 461 
C 1344 236 1331 160 781 160 
L 589 160 
L 589 0 
C 896 0 1216 0 1523 0 
C 1830 0 2150 0 2458 0 
L 2458 160 
L 2266 160 
C 1715 160 1702 230 1702 458 
L 1702 4058 
z
" transform="scale(0.015625)"/>
     </defs>
     <use xlink:href="#CMMI12-4c" transform="scale(0.996264)"/>
     <use xlink:href="#CMMI12-6e" transform="translate(66.370875 -14.943915) scale(0.697382)"/>
     <use xlink:href="#CMR17-2b" transform="translate(107.131719 -14.943915) scale(0.697382)"/>
     <use xlink:href="#CMR17-31" transform="translate(157.33185 -14.943915) scale(0.697382)"/>
    </g>
   </g>
   <g id="text_7">
    <!-- $L_{n+2}$ -->
    <g style="fill: #d62728" transform="translate(405.467891 163.094179) scale(0.08 -0.08)">
     <use xlink:href="#CMMI12-4c" transform="scale(0.996264)"/>
     <use xlink:href="#CMMI12-6e" transform="translate(66.370875 -14.943915) scale(0.697382)"/>
     <use xlink:href="#CMR17-2b" transform="translate(107.131719 -14.943915) scale(0.697382)"/>
     <use xlink:href="#CMR17-32" transform="translate(157.33185 -14.943915) scale(0.697382)"/>
    </g>
   </g>
   <g id="text_8">
    <!-- Weakly Balanced (\texttt{key\_0112}) -->
    <g transform="translate(332.122864 63.208936) scale(0.11 -0.11)">
     <defs>
      <path id="CMR17-57" d="M 5523 3764 
C 5581 3936 5677 4160 6048 4160 
L 6048 4326 
C 5939 4326 5715 4326 5600 4326 
C 5440 4326 5158 4326 5005 4332 
L 5005 4160 
C 5293 4160 5414 4000 5414 3847 
C 5414 3802 5408 3777 5382 3707 
L 4390 555 
L 3347 3873 
C 3328 3937 3322 3963 3322 3988 
C 3322 4160 3603 4160 3725 4160 
L 3725 4326 
C 3539 4326 3219 4326 3021 4326 
C 2861 4326 2573 4326 2426 4332 
L 2426 4160 
C 2720 4160 2797 4141 2861 4027 
C 2886 3969 2989 3638 2989 3619 
C 2989 3593 2976 3555 2970 3536 
L 2029 561 
L 986 3867 
C 954 3957 954 3969 954 3982 
C 954 4160 1235 4160 1363 4160 
L 1363 4326 
C 1178 4326 858 4326 659 4326 
C 493 4326 211 4326 58 4332 
L 58 4160 
C 442 4160 467 4122 531 3918 
L 1779 -20 
C 1811 -115 1811 -128 1869 -128 
C 1920 -128 1939 -115 1965 -26 
L 3053 3433 
L 4141 -26 
C 4166 -115 4186 -128 4237 -128 
C 4294 -128 4294 -115 4326 -20 
L 5523 3764 
z
" transform="scale(0.015625)"/>
      <path id="CMR17-6b" d="M 1670 1673 
C 1664 1686 1632 1724 1632 1743 
C 1632 1756 2086 2171 2144 2222 
C 2509 2528 2739 2560 2906 2560 
L 2906 2733 
C 2867 2733 2854 2733 2848 2720 
L 2534 2720 
C 2355 2720 2080 2720 1907 2733 
L 1907 2566 
C 1997 2559 2061 2508 2061 2419 
C 2061 2291 1933 2170 1926 2170 
L 960 1289 
L 960 4396 
L 198 4326 
L 198 4160 
C 576 4160 634 4122 634 3817 
L 634 426 
C 634 184 608 153 198 153 
L 198 -13 
C 352 0 634 0 794 0 
C 954 0 1235 0 1389 -13 
L 1389 153 
C 979 153 954 178 954 428 
L 954 1130 
L 1395 1532 
L 2042 574 
C 2118 459 2182 369 2182 286 
C 2182 172 2067 153 1990 153 
L 1990 -13 
C 2144 0 2419 0 2579 0 
C 2694 0 2931 0 3040 0 
L 3040 153 
C 2739 153 2669 210 2477 491 
L 1670 1673 
z
" transform="scale(0.015625)"/>
      <path id="CMR17-42" d="M 333 4352 
L 333 4186 
C 774 4186 845 4186 845 3900 
L 845 452 
C 845 166 774 166 333 166 
L 333 0 
L 2534 0 
C 3354 0 3885 583 3885 1164 
C 3885 1741 3360 2233 2675 2233 
C 3290 2356 3718 2771 3718 3264 
C 3718 3802 3194 4352 2368 4352 
L 333 4352 
z
M 1248 2304 
L 1248 3937 
C 1248 4155 1261 4186 1517 4186 
L 2336 4186 
C 2970 4186 3251 3674 3251 3277 
C 3251 2791 2861 2304 2170 2304 
L 1248 2304 
z
M 1517 166 
C 1261 166 1248 197 1248 413 
L 1248 2202 
L 2432 2202 
C 3091 2202 3411 1625 3411 1162 
C 3411 699 3046 166 2349 166 
L 1517 166 
z
" transform="scale(0.015625)"/>
      <path id="CMR17-28" d="M 1958 -1561 
C 1958 -1555 1958 -1542 1939 -1523 
C 1645 -1224 858 -407 858 1581 
C 858 3569 1632 4379 1946 4697 
C 1946 4704 1958 4717 1958 4736 
C 1958 4755 1939 4768 1914 4768 
C 1843 4768 1299 4296 986 3594 
C 666 2887 576 2199 576 1588 
C 576 1128 621 351 1005 -471 
C 1312 -1135 1837 -1600 1914 -1600 
C 1946 -1600 1958 -1587 1958 -1561 
z
" transform="scale(0.015625)"/>
      <path id="CMTT12-6b" d="M 1805 1628 
L 2598 2381 
L 2790 2381 
C 2880 2381 3046 2381 3046 2567 
C 3046 2752 2880 2752 2790 2752 
L 1856 2752 
C 1766 2752 1594 2752 1594 2567 
C 1594 2381 1766 2381 1856 2381 
L 2080 2381 
L 1043 1398 
L 1043 3642 
C 1043 3840 1005 3904 787 3904 
L 397 3904 
C 307 3904 134 3904 134 3719 
C 134 3533 307 3533 397 3533 
L 685 3533 
L 685 371 
L 397 371 
C 307 371 134 371 134 186 
C 134 0 307 0 397 0 
L 1331 0 
C 1421 0 1594 0 1594 186 
C 1594 371 1421 371 1331 371 
L 1043 371 
L 1043 907 
L 1542 1379 
L 2304 371 
C 2099 371 1946 371 1946 186 
C 1946 0 2118 0 2208 0 
L 2925 0 
C 3014 0 3181 0 3181 186 
C 3181 371 3014 371 2925 371 
L 2752 371 
L 1805 1628 
z
" transform="scale(0.015625)"/>
      <path id="CMTT12-65" d="M 2662 1248 
C 2797 1248 2918 1248 2918 1482 
C 2918 2221 2496 2816 1696 2816 
C 954 2816 358 2177 358 1398 
C 358 594 1005 -32 1792 -32 
C 2618 -32 2918 541 2918 709 
C 2918 748 2906 891 2707 891 
C 2586 891 2547 845 2509 748 
C 2349 371 1933 339 1811 339 
C 1280 339 858 748 787 1248 
L 2662 1248 
z
M 794 1600 
C 877 2132 1293 2445 1696 2445 
C 2336 2445 2470 1913 2496 1600 
L 794 1600 
z
" transform="scale(0.015625)"/>
      <path id="CMTT12-79" d="M 2714 2381 
L 2880 2381 
C 2970 2381 3142 2381 3142 2567 
C 3142 2752 2970 2752 2880 2752 
L 2176 2752 
C 2086 2752 1914 2752 1914 2567 
C 1914 2381 2086 2381 2176 2381 
L 2336 2381 
C 2157 1860 1792 801 1702 439 
L 1696 439 
C 1664 579 1638 648 1574 820 
L 979 2381 
L 1126 2381 
C 1216 2381 1389 2381 1389 2567 
C 1389 2752 1216 2752 1126 2752 
L 422 2752 
C 333 2752 160 2752 160 2567 
C 160 2381 333 2381 422 2381 
L 595 2381 
L 1491 94 
C 1517 30 1517 17 1517 11 
C 1517 -2 1350 -555 1254 -732 
C 1216 -796 1056 -1095 749 -1063 
C 755 -1043 774 -1005 774 -935 
C 774 -787 672 -685 525 -685 
C 365 -685 269 -794 269 -941 
C 269 -1184 474 -1440 794 -1440 
C 1414 -1440 1690 -620 1709 -569 
L 2714 2381 
z
" transform="scale(0.015625)"/>
      <path id="CMTT12-5f" d="M 2650 -576 
C 2733 -576 2938 -576 2938 -371 
C 2938 -160 2739 -160 2650 -160 
L 640 -160 
C 557 -160 352 -160 352 -365 
C 352 -576 550 -576 640 -576 
L 2650 -576 
z
" transform="scale(0.015625)"/>
      <path id="CMTT12-30" d="M 2970 1974 
C 2970 3170 2336 4019 1645 4019 
C 947 4019 320 3158 320 1981 
C 320 785 954 -64 1645 -64 
C 2342 -64 2970 798 2970 1974 
z
M 1645 307 
C 1139 307 736 1086 736 2045 
C 736 3004 1178 3648 1645 3648 
C 2112 3648 2554 3004 2554 2045 
C 2554 1092 2150 307 1645 307 
z
" transform="scale(0.015625)"/>
      <path id="CMTT12-31" d="M 1946 3737 
C 1946 3833 1946 4000 1760 4000 
C 1651 4000 1613 3942 1574 3856 
C 1453 3574 1242 3227 902 3200 
C 806 3200 672 3187 672 3021 
C 672 2912 736 2835 877 2835 
C 1235 2835 1510 3104 1530 3117 
L 1530 371 
L 966 371 
C 877 371 704 371 704 186 
C 704 0 877 0 966 0 
L 2509 0 
C 2598 0 2771 0 2771 186 
C 2771 371 2598 371 2509 371 
L 1946 371 
L 1946 3737 
z
" transform="scale(0.015625)"/>
      <path id="CMTT12-32" d="M 2227 1403 
C 2317 1479 2963 2026 2963 2734 
C 2963 3459 2362 3968 1562 3968 
C 819 3968 326 3413 326 2879 
C 326 2611 550 2592 589 2592 
C 704 2592 845 2680 845 2852 
C 845 2973 800 3011 768 3037 
C 858 3374 1152 3597 1523 3597 
C 2067 3597 2547 3285 2547 2732 
C 2547 2234 2170 1852 1824 1554 
L 416 337 
C 346 280 326 261 326 185 
C 326 0 499 0 589 0 
L 2822 0 
C 2963 38 2963 165 2963 261 
L 2963 396 
C 2963 510 2963 657 2758 657 
C 2547 657 2547 524 2547 371 
L 1005 371 
L 2227 1403 
z
" transform="scale(0.015625)"/>
      <path id="CMR17-29" d="M 1683 1581 
C 1683 2040 1638 2817 1254 3639 
C 947 4303 422 4768 346 4768 
C 326 4768 301 4761 301 4729 
C 301 4717 307 4710 314 4697 
C 621 4378 1402 3568 1402 1584 
C 1402 -407 627 -1217 314 -1537 
C 307 -1549 301 -1556 301 -1568 
C 301 -1600 326 -1600 346 -1600 
C 416 -1600 960 -1128 1274 -426 
C 1594 281 1683 969 1683 1581 
z
" transform="scale(0.015625)"/>
     </defs>
     <use xlink:href="#CMR17-57" transform="scale(0.996264)"/>
     <use xlink:href="#CMR17-65" transform="translate(87.289395 0) scale(0.996264)"/>
     <use xlink:href="#CMR17-61" transform="translate(127.775055 0) scale(0.996264)"/>
     <use xlink:href="#CMR17-6b" transform="translate(173.465532 0) scale(0.996264)"/>
     <use xlink:href="#CMR17-6c" transform="translate(221.758448 0) scale(0.996264)"/>
     <use xlink:href="#CMR17-79" transform="translate(246.629506 0) scale(0.996264)"/>
     <use xlink:href="#CMR17-42" transform="translate(324.998389 0) scale(0.996264)"/>
     <use xlink:href="#CMR17-61" transform="translate(390.187143 0) scale(0.996264)"/>
     <use xlink:href="#CMR17-6c" transform="translate(435.87762 0) scale(0.996264)"/>
     <use xlink:href="#CMR17-61" transform="translate(460.748679 0) scale(0.996264)"/>
     <use xlink:href="#CMR17-6e" transform="translate(506.439156 0) scale(0.996264)"/>
     <use xlink:href="#CMR17-63" transform="translate(557.334526 0) scale(0.996264)"/>
     <use xlink:href="#CMR17-65" transform="translate(597.820186 0) scale(0.996264)"/>
     <use xlink:href="#CMR17-64" transform="translate(638.305846 0) scale(0.996264)"/>
     <use xlink:href="#CMR17-28" transform="translate(719.277183 0) scale(0.996264)"/>
     <use xlink:href="#CMTT12-6b" transform="translate(754.55795 0) scale(0.996264)"/>
     <use xlink:href="#CMTT12-65" transform="translate(805.824061 0) scale(0.996264)"/>
     <use xlink:href="#CMTT12-79" transform="translate(857.090172 0) scale(0.996264)"/>
     <use xlink:href="#CMTT12-5f" transform="translate(908.356283 0) scale(0.996264)"/>
     <use xlink:href="#CMTT12-30" transform="translate(959.622394 0) scale(0.996264)"/>
     <use xlink:href="#CMTT12-31" transform="translate(1010.888505 0) scale(0.996264)"/>
     <use xlink:href="#CMTT12-31" transform="translate(1062.154616 0) scale(0.996264)"/>
     <use xlink:href="#CMTT12-32" transform="translate(1113.420726 0) scale(0.996264)"/>
     <use xlink:href="#CMR17-29" transform="translate(1164.686837 0) scale(0.996264)"/>
    </g>
   </g>
  </g>
  <g id="text_9">
   <!-- Quadtree Balancing: Before and After -->
   <g transform="translate(152.003973 15.50218) scale(0.12 -0.12)">
    <defs>
     <path id="CMR17-51" d="M 3027 83 
C 3789 408 4307 1236 4307 2193 
C 4307 3499 3366 4480 2304 4480 
C 1216 4480 294 3488 294 2199 
C 294 928 1216 -64 2304 -64 
C 2451 -64 2656 -45 2899 38 
C 3008 -747 3078 -1216 3629 -1216 
C 4307 -1216 4339 -213 4339 -33 
C 4339 32 4339 76 4294 76 
C 4262 76 4256 31 4256 18 
C 4211 -603 3866 -732 3661 -732 
C 3283 -732 3149 -394 3027 83 
z
M 1958 100 
C 1293 310 768 1017 768 2199 
C 768 3711 1606 4365 2298 4365 
C 3014 4365 3834 3686 3834 2198 
C 3834 1124 3405 527 2976 254 
C 2880 579 2726 960 2310 960 
C 2003 960 1830 692 1830 450 
C 1830 304 1888 183 1958 100 
z
M 2874 192 
C 2618 57 2413 57 2304 57 
C 2016 57 1933 315 1933 454 
C 1933 650 2067 858 2310 858 
C 2720 858 2822 493 2874 192 
z
" transform="scale(0.015625)"/>
     <path id="CMR17-75" d="M 1882 2693 
L 1882 2528 
C 2259 2528 2317 2489 2317 2186 
L 2317 1032 
C 2317 500 2029 38 1555 38 
C 1030 38 986 348 986 678 
L 986 2763 
L 211 2693 
L 211 2528 
C 467 2528 640 2528 646 2274 
L 646 1058 
C 646 633 646 361 813 183 
C 896 101 1056 -64 1517 -64 
C 2061 -64 2272 377 2323 506 
L 2330 506 
L 2330 -63 
L 3091 -63 
L 3091 128 
C 2714 128 2656 166 2656 473 
L 2656 2763 
L 1882 2693 
z
" transform="scale(0.015625)"/>
     <path id="CMR17-67" d="M 710 1164 
C 832 1068 1043 960 1299 960 
C 1805 960 2240 1357 2240 1888 
C 2240 2054 2189 2310 1997 2509 
C 2176 2692 2438 2752 2586 2752 
C 2611 2752 2650 2752 2682 2734 
C 2656 2728 2598 2703 2598 2605 
C 2598 2527 2656 2471 2739 2471 
C 2835 2471 2886 2533 2886 2614 
C 2886 2731 2790 2854 2586 2854 
C 2330 2854 2106 2738 1926 2580 
C 1734 2753 1504 2816 1299 2816 
C 794 2816 358 2419 358 1888 
C 358 1522 570 1292 634 1228 
C 442 1004 442 743 442 711 
C 442 545 506 302 723 168 
C 390 85 128 -169 128 -486 
C 128 -943 736 -1280 1466 -1280 
C 2170 -1280 2803 -956 2803 -479 
C 2803 384 1856 384 1363 384 
C 1216 384 954 384 922 391 
C 723 423 589 602 589 826 
C 589 883 589 1024 710 1164 
z
M 1299 1068 
C 736 1068 736 1760 736 1889 
C 736 2016 736 2708 1299 2708 
C 1862 2708 1862 2016 1862 1889 
C 1862 1760 1862 1068 1299 1068 
z
M 1466 -1171 
C 826 -1171 384 -835 384 -486 
C 384 -289 493 -105 634 -4 
C 794 104 858 104 1293 104 
C 1818 104 2547 104 2547 -486 
C 2547 -835 2106 -1171 1466 -1171 
z
" transform="scale(0.015625)"/>
     <path id="CMR17-3a" d="M 1062 2491 
C 1062 2650 934 2752 800 2752 
C 672 2752 538 2650 538 2491 
C 538 2332 666 2230 800 2230 
C 928 2230 1062 2332 1062 2491 
z
M 1062 261 
C 1062 420 934 522 800 522 
C 672 522 538 420 538 261 
C 538 102 666 0 800 0 
C 928 0 1062 102 1062 261 
z
" transform="scale(0.015625)"/>
     <path id="CMR17-66" d="M 979 2560 
L 1709 2560 
L 1709 2725 
L 966 2725 
L 966 3494 
C 966 4022 1235 4352 1510 4352 
C 1594 4352 1690 4327 1754 4282 
C 1702 4269 1568 4225 1568 4067 
C 1568 3901 1696 3850 1786 3850 
C 1875 3850 2003 3901 2003 4067 
C 2003 4308 1773 4454 1517 4454 
C 1152 4454 653 4156 653 3481 
L 653 2725 
L 141 2725 
L 141 2560 
L 653 2560 
L 653 427 
C 653 184 627 153 218 153 
L 218 -13 
C 371 0 666 0 832 0 
C 1018 0 1344 0 1517 -13 
L 1517 153 
C 1056 153 979 153 979 439 
L 979 2560 
z
" transform="scale(0.015625)"/>
     <path id="CMR17-6f" d="M 2758 1356 
C 2758 2176 2163 2816 1466 2816 
C 768 2816 173 2176 173 1356 
C 173 551 768 -64 1466 -64 
C 2163 -64 2758 551 2758 1356 
z
M 1466 51 
C 1165 51 909 230 762 480 
C 602 767 582 1126 582 1408 
C 582 1677 595 2010 762 2298 
C 890 2509 1139 2714 1466 2714 
C 1754 2714 1997 2554 2150 2330 
C 2349 2029 2349 1607 2349 1408 
C 2349 1158 2336 775 2163 467 
C 1984 173 1709 51 1466 51 
z
" transform="scale(0.015625)"/>
     <path id="CMR17-41" d="M 2323 4378 
C 2291 4461 2278 4480 2214 4480 
C 2150 4480 2138 4461 2106 4378 
L 749 566 
C 627 223 371 153 147 153 
L 147 -13 
C 262 0 518 0 640 0 
C 800 0 1056 0 1210 -13 
L 1210 153 
C 909 153 864 361 864 439 
C 864 497 877 530 890 569 
L 1229 1536 
L 2906 1536 
L 3290 442 
C 3322 365 3322 352 3322 327 
C 3322 153 3046 153 2925 153 
L 2925 0 
C 3110 0 3443 0 3642 0 
C 3808 0 4128 0 4282 -13 
L 4282 153 
C 3942 153 3827 153 3744 387 
L 2323 4378 
z
M 2067 3893 
L 2848 1702 
L 1286 1702 
L 2067 3893 
z
" transform="scale(0.015625)"/>
    </defs>
    <use xlink:href="#CMR17-51" transform="scale(0.996264)"/>
    <use xlink:href="#CMR17-75" transform="translate(71.714788 0) scale(0.996264)"/>
    <use xlink:href="#CMR17-61" transform="translate(122.610158 0) scale(0.996264)"/>
    <use xlink:href="#CMR17-64" transform="translate(168.300635 0) scale(0.996264)"/>
    <use xlink:href="#CMR17-74" transform="translate(219.196005 0) scale(0.996264)"/>
    <use xlink:href="#CMR17-72" transform="translate(254.476773 0) scale(0.996264)"/>
    <use xlink:href="#CMR17-65" transform="translate(289.757541 0) scale(0.996264)"/>
    <use xlink:href="#CMR17-65" transform="translate(330.243201 0) scale(0.996264)"/>
    <use xlink:href="#CMR17-42" transform="translate(400.804828 0) scale(0.996264)"/>
    <use xlink:href="#CMR17-61" transform="translate(465.993582 0) scale(0.996264)"/>
    <use xlink:href="#CMR17-6c" transform="translate(511.68406 0) scale(0.996264)"/>
    <use xlink:href="#CMR17-61" transform="translate(536.555118 0) scale(0.996264)"/>
    <use xlink:href="#CMR17-6e" transform="translate(582.245595 0) scale(0.996264)"/>
    <use xlink:href="#CMR17-63" transform="translate(633.140965 0) scale(0.996264)"/>
    <use xlink:href="#CMR17-69" transform="translate(673.626625 0) scale(0.996264)"/>
    <use xlink:href="#CMR17-6e" transform="translate(698.497684 0) scale(0.996264)"/>
    <use xlink:href="#CMR17-67" transform="translate(749.393054 0) scale(0.996264)"/>
    <use xlink:href="#CMR17-3a" transform="translate(795.083531 0) scale(0.996264)"/>
    <use xlink:href="#CMR17-42" transform="translate(860.44025 0) scale(0.996264)"/>
    <use xlink:href="#CMR17-65" transform="translate(925.629004 0) scale(0.996264)"/>
    <use xlink:href="#CMR17-66" transform="translate(966.114665 0) scale(0.996264)"/>
    <use xlink:href="#CMR17-6f" transform="translate(993.588177 0) scale(0.996264)"/>
    <use xlink:href="#CMR17-72" transform="translate(1039.278654 0) scale(0.996264)"/>
    <use xlink:href="#CMR17-65" transform="translate(1074.559422 0) scale(0.996264)"/>
    <use xlink:href="#CMR17-61" transform="translate(1145.121049 0) scale(0.996264)"/>
    <use xlink:href="#CMR17-6e" transform="translate(1190.811526 0) scale(0.996264)"/>
    <use xlink:href="#CMR17-64" transform="translate(1241.706896 0) scale(0.996264)"/>
    <use xlink:href="#CMR17-41" transform="translate(1322.678232 0) scale(0.996264)"/>
    <use xlink:href="#CMR17-66" transform="translate(1391.750662 0) scale(0.996264)"/>
    <use xlink:href="#CMR17-74" transform="translate(1419.224174 0) scale(0.996264)"/>
    <use xlink:href="#CMR17-65" transform="translate(1454.504942 0) scale(0.996264)"/>
    <use xlink:href="#CMR17-72" transform="translate(1494.990602 0) scale(0.996264)"/>
   </g>
  </g>
  <g id="legend_1">
   <g id="patch_47">
    <path d="M 107.524323 326.2 
L 392.875677 326.2 
Q 394.875677 326.2 394.875677 324.2 
L 394.875677 310.23736 
Q 394.875677 308.23736 392.875677 308.23736 
L 107.524323 308.23736 
Q 105.524323 308.23736 105.524323 310.23736 
L 105.524323 324.2 
Q 105.524323 326.2 107.524323 326.2 
z
" style="fill: #ffffff; opacity: 0.8; stroke: #cccccc; stroke-linejoin: miter"/>
   </g>
   <g id="patch_48">
    <path d="M 109.524323 319.70934 
L 129.524323 319.70934 
L 129.524323 312.70934 
L 109.524323 312.70934 
z
" style="fill: #ff7f0e; opacity: 0.5; stroke: #ff7f0e; stroke-linejoin: miter"/>
   </g>
   <g id="text_10">
    <!-- $L_n$ (coarse) -->
    <g transform="translate(137.524323 319.70934) scale(0.1 -0.1)">
     <use xlink:href="#CMMI12-4c" transform="scale(0.996264)"/>
     <use xlink:href="#CMMI12-6e" transform="translate(66.370875 -14.943915) scale(0.697382)"/>
     <use xlink:href="#CMR17-28" transform="translate(137.705817 0) scale(0.996264)"/>
     <use xlink:href="#CMR17-63" transform="translate(172.986585 0) scale(0.996264)"/>
     <use xlink:href="#CMR17-6f" transform="translate(213.472245 0) scale(0.996264)"/>
     <use xlink:href="#CMR17-61" transform="translate(259.162722 0) scale(0.996264)"/>
     <use xlink:href="#CMR17-72" transform="translate(304.853199 0) scale(0.996264)"/>
     <use xlink:href="#CMR17-73" transform="translate(340.133967 0) scale(0.996264)"/>
     <use xlink:href="#CMR17-65" transform="translate(375.935305 0) scale(0.996264)"/>
     <use xlink:href="#CMR17-29" transform="translate(416.420965 0) scale(0.996264)"/>
    </g>
   </g>
   <g id="patch_49">
    <path d="M 207.447174 319.70934 
L 227.447174 319.70934 
L 227.447174 312.70934 
L 207.447174 312.70934 
z
" style="fill: #2ca02c; opacity: 0.5; stroke: #2ca02c; stroke-linejoin: miter"/>
   </g>
   <g id="text_11">
    <!-- $L_{n+1}$ (buffer) -->
    <g transform="translate(235.447174 319.70934) scale(0.1 -0.1)">
     <defs>
      <path id="CMR17-b" d="M 2554 2560 
L 3283 2560 
L 3283 2725 
L 2541 2725 
L 2541 3494 
C 2541 4022 2810 4352 3085 4352 
C 3168 4352 3264 4327 3328 4282 
C 3277 4269 3142 4225 3142 4067 
C 3142 3901 3270 3850 3360 3850 
C 3450 3850 3578 3901 3578 4067 
C 3578 4308 3347 4454 3091 4454 
C 2842 4454 2637 4333 2477 4181 
C 2330 4390 2086 4454 1837 4454 
C 1338 4454 634 4168 634 3469 
L 634 2725 
L 122 2725 
L 122 2560 
L 634 2560 
L 634 427 
C 634 184 608 153 198 153 
L 198 -13 
C 352 0 634 0 794 0 
C 960 0 1242 0 1395 -13 
L 1395 153 
C 986 153 960 178 960 427 
L 960 2560 
L 2227 2560 
L 2227 427 
C 2227 184 2202 153 1792 153 
L 1792 -13 
C 1946 0 2240 0 2406 0 
C 2592 0 2918 0 3091 -13 
L 3091 153 
C 2630 153 2554 153 2554 439 
L 2554 2560 
z
M 947 2725 
L 947 3469 
C 947 4047 1395 4352 1824 4352 
C 1920 4352 2170 4332 2323 4187 
C 2208 4187 2099 4136 2099 3977 
C 2099 3812 2246 3767 2259 3767 
C 2227 3652 2227 3526 2227 3481 
L 2227 2725 
L 947 2725 
z
" transform="scale(0.015625)"/>
     </defs>
     <use xlink:href="#CMMI12-4c" transform="scale(0.996264)"/>
     <use xlink:href="#CMMI12-6e" transform="translate(66.370875 -14.943915) scale(0.697382)"/>
     <use xlink:href="#CMR17-2b" transform="translate(107.131719 -14.943915) scale(0.697382)"/>
     <use xlink:href="#CMR17-31" transform="translate(157.33185 -14.943915) scale(0.697382)"/>
     <use xlink:href="#CMR17-28" transform="translate(219.88913 0) scale(0.996264)"/>
     <use xlink:href="#CMR17-62" transform="translate(255.169898 0) scale(0.996264)"/>
     <use xlink:href="#CMR17-75" transform="translate(306.065268 0) scale(0.996264)"/>
     <use xlink:href="#CMR17-b" transform="translate(356.960638 0) scale(0.996264)"/>
     <use xlink:href="#CMR17-65" transform="translate(409.305315 0) scale(0.996264)"/>
     <use xlink:href="#CMR17-72" transform="translate(449.790975 0) scale(0.996264)"/>
     <use xlink:href="#CMR17-29" transform="translate(485.071743 0) scale(0.996264)"/>
    </g>
   </g>
   <g id="patch_50">
    <path d="M 314.018228 319.70934 
L 334.018228 319.70934 
L 334.018228 312.70934 
L 314.018228 312.70934 
z
" style="fill: #d62728; opacity: 0.5; stroke: #d62728; stroke-linejoin: miter"/>
   </g>
   <g id="text_12">
    <!-- $L_{n+2}$ (fine) -->
    <g transform="translate(342.018228 319.70934) scale(0.1 -0.1)">
     <defs>
      <path id="CMR17-c" d="M 2554 2764 
C 2400 2764 1926 2764 1805 2739 
C 1766 2725 1754 2725 1677 2725 
L 947 2725 
L 947 3469 
C 947 4073 1434 4352 1818 4352 
C 1939 4352 2214 4320 2355 4101 
C 2291 4101 2086 4101 2086 3878 
C 2086 3725 2189 3648 2317 3648 
C 2432 3648 2547 3712 2547 3885 
C 2547 4205 2240 4454 1843 4454 
C 1338 4454 634 4168 634 3469 
L 634 2725 
L 122 2725 
L 122 2560 
L 634 2560 
L 634 427 
C 634 184 608 153 198 153 
L 198 -13 
C 352 0 634 0 794 0 
C 960 0 1242 0 1395 -13 
L 1395 153 
C 986 153 960 178 960 427 
L 960 2560 
L 1901 2560 
C 2176 2560 2227 2502 2227 2222 
L 2227 427 
C 2227 184 2202 153 1792 153 
L 1792 -13 
C 1946 0 2227 0 2387 0 
C 2554 0 2835 0 2989 -13 
L 2989 153 
C 2579 153 2554 178 2554 427 
L 2554 2764 
z
" transform="scale(0.015625)"/>
     </defs>
     <use xlink:href="#CMMI12-4c" transform="scale(0.996264)"/>
     <use xlink:href="#CMMI12-6e" transform="translate(66.370875 -14.943915) scale(0.697382)"/>
     <use xlink:href="#CMR17-2b" transform="translate(107.131719 -14.943915) scale(0.697382)"/>
     <use xlink:href="#CMR17-32" transform="translate(157.33185 -14.943915) scale(0.697382)"/>
     <use xlink:href="#CMR17-28" transform="translate(219.88913 0) scale(0.996264)"/>
     <use xlink:href="#CMR17-c" transform="translate(255.169898 0) scale(0.996264)"/>
     <use xlink:href="#CMR17-6e" transform="translate(304.912122 0) scale(0.996264)"/>
     <use xlink:href="#CMR17-65" transform="translate(355.807491 0) scale(0.996264)"/>
     <use xlink:href="#CMR17-29" transform="translate(396.293152 0) scale(0.996264)"/>
    </g>
   </g>
  </g>
 </g>
 <defs>
  <clipPath id="p1a5aee3324">
   <rect x="7.2" y="67.208936" width="213.702128" height="213.702128"/>
  </clipPath>
  <clipPath id="pa39f56f821">
   <rect x="295.697872" y="67.208936" width="213.702128" height="213.702128"/>
  </clipPath>
 </defs>
</svg>
